<svg xmlns="http://www.w3.org/2000/svg" version="1.1" width="1024" height="1024">
<rect x="0" y="0" width="1024" height="1024" fill="#c8c8c8" />
<g transform="scale(4.000000) translate(0.5 0.5)">
<polygon fill="#000000" fill-opacity="0.501961" points="145,162 183,88 -16,141" />
<polygon fill="#000000" fill-opacity="0.501961" points="200,112 40,105 32,172" />
<polygon fill="#ffffff" fill-opacity="0.501961" points="271,119 99,171 229,271" />
<polygon fill="#000000" fill-opacity="0.501961" points="18,139 31,69 8,96" />
<polygon fill="#000000" fill-opacity="0.501961" points="209,157 236,106 216,62" />
<polygon fill="#ffffff" fill-opacity="0.501961" points="205,25 70,130 59,49" />
<polygon fill="#ffffff" fill-opacity="0.501961" points="-16,251 186,193 270,271" />
<polygon fill="#000000" fill-opacity="0.501961" points="119,13 54,24 38,66" />
<polygon fill="#000000" fill-opacity="0.501961" points="116,135 51,162 121,76" />
<polygon fill="#0a0a0a" fill-opacity="0.501961" points="207,49 108,20 142,3" />
<polygon fill="#373737" fill-opacity="0.501961" points="49,215 126,174 144,208" />
<polygon fill="#ffffff" fill-opacity="0.501961" points="127,112 77,21 271,56" />
<polygon fill="#000000" fill-opacity="0.501961" points="196,190 253,204 236,189" />
<polygon fill="#3d3d3d" fill-opacity="0.501961" points="239,26 174,16 205,61" />
<polygon fill="#000000" fill-opacity="0.501961" points="146,191 175,187 126,212" />
<polygon fill="#ffffff" fill-opacity="0.501961" points="105,137 127,169 50,192" />
<polygon fill="#000000" fill-opacity="0.501961" points="226,141 164,91 147,110" />
<polygon fill="#000000" fill-opacity="0.501961" points="58,90 14,155 76,137" />
<polygon fill="#000000" fill-opacity="0.501961" points="10,248 10,220 33,189" />
<polygon fill="#000000" fill-opacity="0.501961" points="41,194 33,155 66,209" />
<polygon fill="#ffffff" fill-opacity="0.501961" points="38,150 53,193 77,169" />
<polygon fill="#ffffff" fill-opacity="0.501961" points="-16,-10 85,-16 -3,108" />
<polygon fill="#ffffff" fill-opacity="0.501961" points="186,26 145,53 224,31" />
<polygon fill="#ffffff" fill-opacity="0.501961" points="237,221 20,211 12,271" />
<polygon fill="#000000" fill-opacity="0.501961" points="178,106 132,167 88,118" />
<polygon fill="#000000" fill-opacity="0.501961" points="257,221 247,194 243,256" />
<polygon fill="#ffffff" fill-opacity="0.501961" points="16,103 6,245 -16,134" />
<polygon fill="#ffffff" fill-opacity="0.501961" points="257,127 271,39 202,43" />
<polygon fill="#ffffff" fill-opacity="0.501961" points="271,34 90,-7 252,-16" />
<polygon fill="#ffffff" fill-opacity="0.501961" points="138,195 56,194 91,207" />
<polygon fill="#000000" fill-opacity="0.501961" points="187,42 222,74 206,48" />
<polygon fill="#ffffff" fill-opacity="0.501961" points="27,80 86,41 22,143" />
<polygon fill="#000000" fill-opacity="0.501961" points="78,192 92,199 76,176" />
<polygon fill="#ffffff" fill-opacity="0.501961" points="222,78 111,24 211,135" />
<polygon fill="#000000" fill-opacity="0.501961" points="212,158 201,133 221,124" />
<polygon fill="#ffffff" fill-opacity="0.501961" points="-16,109 56,43 -3,-15" />
<polygon fill="#ffffff" fill-opacity="0.501961" points="136,16 -16,19 102,-16" />
<polygon fill="#000000" fill-opacity="0.501961" points="83,163 122,79 51,159" />
<polygon fill="#000000" fill-opacity="0.501961" points="-16,122 31,68 11,109" />
<polygon fill="#ffffff" fill-opacity="0.501961" points="170,117 128,189 234,177" />
<polygon fill="#ffffff" fill-opacity="0.501961" points="215,191 271,101 222,118" />
<polygon fill="#000000" fill-opacity="0.501961" points="121,210 85,215 61,202" />
<polygon fill="#ffffff" fill-opacity="0.501961" points="161,199 -16,254 267,257" />
<polygon fill="#000000" fill-opacity="0.501961" points="103,179 116,186 87,199" />
<polygon fill="#ffffff" fill-opacity="0.501961" points="55,146 73,149 51,133" />
<polygon fill="#ffffff" fill-opacity="0.501961" points="70,175 33,137 49,185" />
<polygon fill="#ffffff" fill-opacity="0.501961" points="38,189 -16,224 31,143" />
<polygon fill="#000000" fill-opacity="0.501961" points="69,45 100,34 43,32" />
<polygon fill="#000000" fill-opacity="0.501961" points="45,183 51,191 17,206" />
<polygon fill="#000000" fill-opacity="0.501961" points="239,36 205,44 227,26" />
<polygon fill="#000000" fill-opacity="0.501961" points="9,97 26,67 50,57" />
<polygon fill="#000000" fill-opacity="0.501961" points="226,74 230,99 204,56" />
<polygon fill="#ffffff" fill-opacity="0.501961" points="124,188 107,139 74,167" />
<polygon fill="#ffffff" fill-opacity="0.501961" points="182,118 208,144 141,158" />
<polygon fill="#ffffff" fill-opacity="0.501961" points="149,32 76,130 52,55" />
<polygon fill="#000000" fill-opacity="0.501961" points="194,17 171,24 221,26" />
<polygon fill="#000000" fill-opacity="0.501961" points="114,133 150,151 168,89" />
<polygon fill="#000000" fill-opacity="0.501961" points="16,214 15,251 8,232" />
<polygon fill="#ffffff" fill-opacity="0.501961" points="123,147 135,148 120,137" />
<polygon fill="#ffffff" fill-opacity="0.501961" points="189,131 203,173 108,207" />
<polygon fill="#ffffff" fill-opacity="0.501961" points="57,32 102,22 142,36" />
<polygon fill="#000000" fill-opacity="0.501961" points="12,148 40,131 19,160" />
<polygon fill="#ffffff" fill-opacity="0.501961" points="95,24 206,59 135,113" />
<polygon fill="#ffffff" fill-opacity="0.501961" points="15,231 108,215 24,207" />
<polygon fill="#ffffff" fill-opacity="0.501961" points="256,49 210,182 271,202" />
<polygon fill="#000000" fill-opacity="0.501961" points="34,126 55,135 66,83" />
<polygon fill="#ffffff" fill-opacity="0.501961" points="161,43 196,25 230,33" />
<polygon fill="#ffffff" fill-opacity="0.501961" points="147,15 213,133 218,79" />
<polygon fill="#ffffff" fill-opacity="0.501961" points="166,22 264,8 140,-16" />
<polygon fill="#000000" fill-opacity="0.501961" points="209,95 236,110 222,113" />
<polygon fill="#000000" fill-opacity="0.501961" points="131,11 144,31 162,34" />
<polygon fill="#ffffff" fill-opacity="0.501961" points="29,192 -14,242 -9,90" />
<polygon fill="#ffffff" fill-opacity="0.501961" points="91,-13 143,21 45,7" />
<polygon fill="#ffffff" fill-opacity="0.501961" points="-16,36 -16,98 64,41" />
<polygon fill="#ffffff" fill-opacity="0.501961" points="235,101 271,15 214,52" />
<polygon fill="#000000" fill-opacity="0.501961" points="114,196 126,193 131,171" />
<polygon fill="#000000" fill-opacity="0.501961" points="101,210 164,189 132,211" />
<polygon fill="#000000" fill-opacity="0.501961" points="14,129 19,150 21,110" />
<polygon fill="#ffffff" fill-opacity="0.501961" points="168,186 243,200 240,261" />
<polygon fill="#000000" fill-opacity="0.501961" points="147,10 173,27 178,45" />
<polygon fill="#000000" fill-opacity="0.501961" points="152,103 208,131 166,93" />
<polygon fill="#ffffff" fill-opacity="0.501961" points="213,126 172,99 160,26" />
<polygon fill="#000000" fill-opacity="0.501961" points="218,145 205,147 224,107" />
<polygon fill="#000000" fill-opacity="0.501961" points="224,188 197,192 248,200" />
<polygon fill="#000000" fill-opacity="0.501961" points="196,46 188,39 218,37" />
<polygon fill="#000000" fill-opacity="0.501961" points="75,181 97,198 79,195" />
<polygon fill="#000000" fill-opacity="0.501961" points="78,212 51,201 37,178" />
<polygon fill="#ffffff" fill-opacity="0.501961" points="156,271 203,186 120,211" />
<polygon fill="#ffffff" fill-opacity="0.501961" points="116,196 64,201 93,207" />
<polygon fill="#000000" fill-opacity="0.501961" points="106,19 76,18 49,33" />
<polygon fill="#000000" fill-opacity="0.501961" points="105,24 129,20 97,16" />
<polygon fill="#ffffff" fill-opacity="0.501961" points="-16,-5 114,-3 -6,57" />
<polygon fill="#ffffff" fill-opacity="0.501961" points="187,-16 268,61 271,-8" />
<polygon fill="#000000" fill-opacity="0.501961" points="25,87 21,134 13,93" />
<polygon fill="#000000" fill-opacity="0.501961" points="73,128 64,162 87,157" />
<polygon fill="#ffffff" fill-opacity="0.501961" points="17,103 -16,134 12,146" />
<polygon fill="#ffffff" fill-opacity="0.501961" points="37,139 85,201 57,196" />
<polygon fill="#000000" fill-opacity="0.501961" points="190,22 232,30 211,19" />
<polygon fill="#000000" fill-opacity="0.501961" points="156,189 152,200 174,185" />
<polygon fill="#ffffff" fill-opacity="0.501961" points="3,271 135,251 42,196" />
<polygon fill="#ffffff" fill-opacity="0.501961" points="83,37 21,146 27,85" />
<polygon fill="#000000" fill-opacity="0.501961" points="253,226 241,238 242,250" />
<polygon fill="#ffffff" fill-opacity="0.501961" points="208,136 129,164 198,202" />
<polygon fill="#000000" fill-opacity="0.501961" points="38,191 15,219 21,202" />
<polygon fill="#ffffff" fill-opacity="0.501961" points="160,22 150,26 139,11" />
<polygon fill="#000000" fill-opacity="0.501961" points="145,29 118,22 146,21" />
<polygon fill="#ffffff" fill-opacity="0.501961" points="232,195 159,199 249,226" />
<polygon fill="#ffffff" fill-opacity="0.501961" points="114,136 127,138 129,150" />
<polygon fill="#000000" fill-opacity="0.501961" points="254,214 230,189 251,199" />
<polygon fill="#ffffff" fill-opacity="0.501961" points="257,208 264,271 248,251" />
<polygon fill="#000000" fill-opacity="0.501961" points="207,139 223,119 208,156" />
<polygon fill="#000000" fill-opacity="0.501961" points="114,96 147,155 111,128" />
<polygon fill="#000000" fill-opacity="0.501961" points="36,175 49,188 34,146" />
<polygon fill="#ffffff" fill-opacity="0.501961" points="271,151 214,163 224,111" />
<polygon fill="#000000" fill-opacity="0.501961" points="70,21 48,43 49,31" />
<polygon fill="#000000" fill-opacity="0.501961" points="196,120 174,100 154,120" />
<polygon fill="#ffffff" fill-opacity="0.501961" points="204,58 172,27 202,125" />
<polygon fill="#ffffff" fill-opacity="0.501961" points="96,206 105,191 126,202" />
<polygon fill="#000000" fill-opacity="0.501961" points="233,29 236,40 221,40" />
<polygon fill="#ffffff" fill-opacity="0.501961" points="82,24 110,32 62,32" />
<polygon fill="#ffffff" fill-opacity="0.501961" points="83,180 135,176 102,138" />
<polygon fill="#000000" fill-opacity="0.501961" points="95,105 109,134 120,81" />
<polygon fill="#ffffff" fill-opacity="0.501961" points="110,97 114,105 104,106" />
<polygon fill="#000000" fill-opacity="0.501961" points="51,59 69,42 43,55" />
<polygon fill="#ffffff" fill-opacity="0.501961" points="271,114 199,43 255,43" />
<polygon fill="#000000" fill-opacity="0.501961" points="230,115 226,90 236,110" />
<polygon fill="#ffffff" fill-opacity="0.501961" points="154,35 75,128 57,57" />
<polygon fill="#000000" fill-opacity="0.501961" points="135,162 114,151 154,144" />
<polygon fill="#ffffff" fill-opacity="0.501961" points="247,36 227,180 271,217" />
<polygon fill="#000000" fill-opacity="0.501961" points="146,6 138,20 132,9" />
<polygon fill="#ffffff" fill-opacity="0.501961" points="188,90 211,67 225,95" />
<polygon fill="#000000" fill-opacity="0.501961" points="23,156 13,157 16,123" />
<polygon fill="#000000" fill-opacity="0.501961" points="118,195 129,185 111,190" />
<polygon fill="#ffffff" fill-opacity="0.501961" points="-13,203 43,190 23,156" />
<polygon fill="#000000" fill-opacity="0.501961" points="73,164 42,147 44,130" />
<polygon fill="#000000" fill-opacity="0.501961" points="93,41 76,32 101,37" />
<polygon fill="#ffffff" fill-opacity="0.501961" points="42,-16 49,49 18,78" />
<polygon fill="#ffffff" fill-opacity="0.501961" points="131,176 172,119 194,126" />
<polygon fill="#ffffff" fill-opacity="0.501961" points="161,59 122,107 139,111" />
<polygon fill="#000000" fill-opacity="0.501961" points="169,91 107,132 156,141" />
<polygon fill="#000000" fill-opacity="0.501961" points="41,56 54,53 28,74" />
<polygon fill="#000000" fill-opacity="0.501961" points="32,136 50,101 77,131" />
<polygon fill="#000000" fill-opacity="0.501961" points="53,201 101,209 73,212" />
<polygon fill="#000000" fill-opacity="0.501961" points="100,208 139,200 126,210" />
<polygon fill="#000000" fill-opacity="0.501961" points="191,19 176,28 160,25" />
<polygon fill="#ffffff" fill-opacity="0.501961" points="72,214 248,218 234,267" />
<polygon fill="#000000" fill-opacity="0.501961" points="222,98 229,112 207,95" />
<polygon fill="#000000" fill-opacity="0.501961" points="112,185 106,178 86,196" />
<polygon fill="#ffffff" fill-opacity="0.501961" points="-8,214 15,179 3,271" />
<polygon fill="#ffffff" fill-opacity="0.501961" points="146,167 96,152 53,176" />
<polygon fill="#ffffff" fill-opacity="0.501961" points="65,141 66,150 46,135" />
<polygon fill="#000000" fill-opacity="0.501961" points="244,238 252,206 254,223" />
<polygon fill="#ffffff" fill-opacity="0.501961" points="148,-16 131,11 71,19" />
<polygon fill="#ffffff" fill-opacity="0.501961" points="247,-8 137,-16 168,24" />
<polygon fill="#000000" fill-opacity="0.501961" points="46,152 61,157 39,117" />
<polygon fill="#000000" fill-opacity="0.501961" points="205,128 210,137 191,124" />
<polygon fill="#ffffff" fill-opacity="0.501961" points="141,28 74,44 69,119" />
<polygon fill="#ffffff" fill-opacity="0.501961" points="144,196 159,165 112,204" />
<polygon fill="#000000" fill-opacity="0.501961" points="75,187 86,198 78,172" />
<polygon fill="#000000" fill-opacity="0.501961" points="33,127 72,131 60,90" />
<polygon fill="#000000" fill-opacity="0.501961" points="115,153 140,163 95,119" />
<polygon fill="#000000" fill-opacity="0.501961" points="7,98 -7,118 28,89" />
<polygon fill="#ffffff" fill-opacity="0.501961" points="36,137 10,180 26,179" />
<polygon fill="#ffffff" fill-opacity="0.501961" points="90,191 121,166 74,164" />
<polygon fill="#000000" fill-opacity="0.501961" points="226,85 207,63 212,56" />
<polygon fill="#ffffff" fill-opacity="0.501961" points="44,196 27,208 79,221" />
<polygon fill="#ffffff" fill-opacity="0.501961" points="45,153 81,173 50,187" />
<polygon fill="#ffffff" fill-opacity="0.501961" points="16,-16 -12,119 49,42" />
<polygon fill="#000000" fill-opacity="0.501961" points="139,6 153,9 167,27" />
<polygon fill="#ffffff" fill-opacity="0.501961" points="191,25 226,33 194,39" />
<polygon fill="#ffffff" fill-opacity="0.501961" points="212,131 183,27 147,69" />
<polygon fill="#d9d9d9" fill-opacity="0.501961" points="53,109 60,108 53,103" />
<polygon fill="#ffffff" fill-opacity="0.501961" points="37,71 65,49 34,124" />
<polygon fill="#ffffff" fill-opacity="0.501961" points="144,107 81,39 184,40" />
<polygon fill="#ffffff" fill-opacity="0.501961" points="169,98 211,68 195,50" />
<polygon fill="#000000" fill-opacity="0.501961" points="108,90 60,156 93,151" />
<polygon fill="#000000" fill-opacity="0.501961" points="40,158 36,145 33,159" />
<polygon fill="#000000" fill-opacity="0.501961" points="223,119 217,103 217,139" />
<polygon fill="#ffffff" fill-opacity="0.501961" points="52,192 40,168 97,204" />
<polygon fill="#ffffff" fill-opacity="0.501961" points="-10,54 0,82 69,39" />
<polygon fill="#000000" fill-opacity="0.501961" points="92,16 106,22 71,24" />
<polygon fill="#000000" fill-opacity="0.501961" points="108,142 124,113 115,89" />
<polygon fill="#ffffff" fill-opacity="0.501961" points="191,194 62,225 191,271" />
<polygon fill="#ffffff" fill-opacity="0.501961" points="167,38 79,116 123,25" />
<polygon fill="#000000" fill-opacity="0.501961" points="23,207 28,196 45,189" />
<polygon fill="#000000" fill-opacity="0.501961" points="73,38 51,41 48,33" />
<polygon fill="#ffffff" fill-opacity="0.501961" points="27,126 26,84 104,36" />
<polygon fill="#ffffff" fill-opacity="0.501961" points="106,-12 141,22 78,6" />
<polygon fill="#ffffff" fill-opacity="0.501961" points="84,167 105,135 122,180" />
<polygon fill="#ffffff" fill-opacity="0.501961" points="2,119 2,158 21,96" />
<polygon fill="#ffffff" fill-opacity="0.501961" points="118,201 105,188 105,205" />
<polygon fill="#ffffff" fill-opacity="0.501961" points="251,238 271,245 228,271" />
<polygon fill="#000000" fill-opacity="0.501961" points="228,190 222,195 205,188" />
<polygon fill="#ffffff" fill-opacity="0.501961" points="130,164 110,181 118,188" />
<polygon fill="#000000" fill-opacity="0.501961" points="12,218 20,204 18,220" />
<polygon fill="#000000" fill-opacity="0.501961" points="125,174 127,188 131,178" />
<polygon fill="#ffffff" fill-opacity="0.501961" points="238,109 269,-3 218,61" />
<polygon fill="#ffffff" fill-opacity="0.501961" points="63,94 70,121 86,105" />
<polygon fill="#363636" fill-opacity="0.501961" points="171,87 161,101 167,106" />
<polygon fill="#ffffff" fill-opacity="0.501961" points="135,199 164,185 129,172" />
<polygon fill="#000000" fill-opacity="0.501961" points="111,185 108,192 122,191" />
<polygon fill="#000000" fill-opacity="0.501961" points="70,44 88,34 63,33" />
<polygon fill="#000000" fill-opacity="0.501961" points="162,195 171,184 158,190" />
<polygon fill="#ffffff" fill-opacity="0.501961" points="203,44 247,106 230,41" />
<polygon fill="#000000" fill-opacity="0.501961" points="25,102 6,99 25,89" />
<polygon fill="#000000" fill-opacity="0.501961" points="107,181 87,198 98,196" />
<polygon fill="#ffffff" fill-opacity="0.501961" points="120,103 167,86 132,112" />
<polygon fill="#000000" fill-opacity="0.501961" points="155,200 167,185 127,205" />
<polygon fill="#ffffff" fill-opacity="0.501961" points="199,15 255,33 258,-16" />
<polygon fill="#ffffff" fill-opacity="0.501961" points="204,136 177,245 165,121" />
<polygon fill="#000000" fill-opacity="0.501961" points="191,124 210,141 213,133" />
<polygon fill="#ffffff" fill-opacity="0.501961" points="250,215 225,194 188,194" />
<polygon fill="#ffffff" fill-opacity="0.501961" points="181,42 210,26 173,28" />
<polygon fill="#ffffff" fill-opacity="0.501961" points="15,234 84,230 19,215" />
<polygon fill="#ffffff" fill-opacity="0.501961" points="251,249 257,195 271,271" />
<polygon fill="#000000" fill-opacity="0.501961" points="42,183 70,210 53,202" />
<polygon fill="#000000" fill-opacity="0.501961" points="207,41 236,32 232,41" />
<polygon fill="#ffffff" fill-opacity="0.501961" points="38,190 -16,187 31,150" />
<polygon fill="#ffffff" fill-opacity="0.501961" points="108,171 251,192 190,142" />
<polygon fill="#000000" fill-opacity="0.501961" points="49,53 64,42 59,53" />
<polygon fill="#000000" fill-opacity="0.501961" points="208,61 188,39 198,41" />
<polygon fill="#000000" fill-opacity="0.501961" points="174,109 122,113 137,159" />
<polygon fill="#ffffff" fill-opacity="0.501961" points="68,167 59,197 79,205" />
<polygon fill="#ededed" fill-opacity="0.501961" points="160,102 166,101 170,104" />
<polygon fill="#000000" fill-opacity="0.501961" points="247,235 253,223 249,210" />
<polygon fill="#000000" fill-opacity="0.501961" points="204,19 216,28 230,27" />
<polygon fill="#000000" fill-opacity="0.501961" points="78,213 102,213 94,205" />
<polygon fill="#ffffff" fill-opacity="0.501961" points="13,119 -16,104 13,212" />
<polygon fill="#ffffff" fill-opacity="0.501961" points="211,131 185,108 214,105" />
<polygon fill="#000000" fill-opacity="0.501961" points="115,16 126,25 93,18" />
<polygon fill="#000000" fill-opacity="0.501961" points="108,92 121,82 105,104" />
<polygon fill="#000000" fill-opacity="0.501961" points="163,30 176,22 195,23" />
<polygon fill="#000000" fill-opacity="0.501961" points="87,155 99,142 50,114" />
<polygon fill="#ffffff" fill-opacity="0.501961" points="223,92 199,69 217,99" />
<polygon fill="#ffffff" fill-opacity="0.501961" points="99,219 47,204 -2,271" />
<polygon fill="#000000" fill-opacity="0.501961" points="145,31 119,19 144,23" />
<polygon fill="#000000" fill-opacity="0.501961" points="196,120 110,120 177,102" />
<polygon fill="#ffffff" fill-opacity="0.501961" points="109,44 109,24 84,23" />
<polygon fill="#ffffff" fill-opacity="0.501961" points="158,163 42,162 97,181" />
<polygon fill="#000000" fill-opacity="0.501961" points="64,102 61,91 42,111" />
<polygon fill="#000000" fill-opacity="0.501961" points="72,211 83,209 54,197" />
<polygon fill="#ffffff" fill-opacity="0.501961" points="230,21 169,16 168,-16" />
<polygon fill="#ffffff" fill-opacity="0.501961" points="154,199 12,271 256,257" />
<polygon fill="#000000" fill-opacity="0.501961" points="44,173 34,158 43,191" />
<polygon fill="#ffffff" fill-opacity="0.501961" points="205,139 184,119 129,170" />
<polygon fill="#ffffff" fill-opacity="0.501961" points="45,180 76,183 38,145" />
<polygon fill="#000000" fill-opacity="0.501961" points="140,17 161,34 137,25" />
<polygon fill="#ffffff" fill-opacity="0.501961" points="61,17 120,16 165,-13" />
<polygon fill="#000000" fill-opacity="0.501961" points="234,115 236,108 219,108" />
<polygon fill="#ffffff" fill-opacity="0.501961" points="98,206 109,192 84,204" />
<polygon fill="#000000" fill-opacity="0.501961" points="225,190 243,193 231,195" />
<polygon fill="#000000" fill-opacity="0.501961" points="76,161 104,135 53,155" />
<polygon fill="#ffffff" fill-opacity="0.501961" points="244,233 247,210 234,195" />
<polygon fill="#ffffff" fill-opacity="0.501961" points="121,25 159,47 71,27" />
<polygon fill="#ffffff" fill-opacity="0.501961" points="-6,271 23,182 -4,105" />
<polygon fill="#ffffff" fill-opacity="0.501961" points="36,90 125,81 51,59" />
<polygon fill="#ffffff" fill-opacity="0.501961" points="221,145 223,112 251,127" />
<polygon fill="#ffffff" fill-opacity="0.501961" points="130,145 125,147 117,136" />
<polygon fill="#ffffff" fill-opacity="0.501961" points="136,10 150,17 157,29" />
<polygon fill="#000000" fill-opacity="0.501961" points="57,98 64,89 61,113" />
<polygon fill="#000000" fill-opacity="0.501961" points="107,212 93,207 128,205" />
<polygon fill="#000000" fill-opacity="0.501961" points="135,12 153,12 135,5" />
<polygon fill="#ffffff" fill-opacity="0.501961" points="44,194 88,247 26,206" />
<polygon fill="#ffffff" fill-opacity="0.501961" points="1,45 84,15 0,-16" />
<polygon fill="#ffffff" fill-opacity="0.501961" points="164,31 155,22 165,40" />
<polygon fill="#000000" fill-opacity="0.501961" points="103,106 116,149 117,105" />
<polygon fill="#ffffff" fill-opacity="0.501961" points="271,219 232,183 239,64" />
<polygon fill="#000000" fill-opacity="0.501961" points="5,112 2,108 10,95" />
<polygon fill="#ffffff" fill-opacity="0.501961" points="109,172 82,185 92,192" />
<polygon fill="#000000" fill-opacity="0.501961" points="125,175 129,185 121,191" />
<polygon fill="#000000" fill-opacity="0.501961" points="211,141 222,127 219,104" />
<polygon fill="#ffffff" fill-opacity="0.501961" points="129,112 117,91 187,76" />
<polygon fill="#000000" fill-opacity="0.501961" points="72,129 111,108 139,114" />
<polygon fill="#000000" fill-opacity="0.501961" points="211,134 207,157 217,147" />
<polygon fill="#000000" fill-opacity="0.501961" points="220,82 215,69 221,72" />
<polygon fill="#000000" fill-opacity="0.501961" points="12,246 18,212 10,227" />
<polygon fill="#000000" fill-opacity="0.501961" points="210,55 217,74 197,46" />
<polygon fill="#d2d2d2" fill-opacity="0.501961" points="224,98 229,104 226,108" />
<polygon fill="#000000" fill-opacity="0.501961" points="111,116 162,129 142,158" />
<polygon fill="#000000" fill-opacity="0.501961" points="236,36 208,22 222,22" />
<polygon fill="#000000" fill-opacity="0.501961" points="202,43 209,38 187,41" />
<polygon fill="#000000" fill-opacity="0.501961" points="166,26 180,38 169,36" />
<polygon fill="#ffffff" fill-opacity="0.501961" points="186,28 173,28 192,71" />
<polygon fill="#fdfdfd" fill-opacity="0.501961" points="127,145 119,133 118,141" />
<polygon fill="#000000" fill-opacity="0.501961" points="219,77 231,106 229,87" />
<polygon fill="#000000" fill-opacity="0.501961" points="78,188 86,198 100,195" />
<polygon fill="#ffffff" fill-opacity="0.501961" points="203,187 271,190 223,129" />
<polygon fill="#ffffff" fill-opacity="0.501961" points="82,30 63,33 66,28" />
<polygon fill="#ffffff" fill-opacity="0.501961" points="4,207 41,189 33,166" />
<polygon fill="#000000" fill-opacity="0.501961" points="36,62 47,58 28,77" />
<polygon fill="#ffffff" fill-opacity="0.501961" points="202,-16 271,7 252,53" />
<polygon fill="#ffffff" fill-opacity="0.501961" points="180,119 164,124 208,156" />
<polygon fill="#000000" fill-opacity="0.501961" points="69,145 44,124 79,129" />
<polygon fill="#ffffff" fill-opacity="0.501961" points="98,100 72,124 67,110" />
<polygon fill="#ffffff" fill-opacity="0.501961" points="182,125 207,139 196,213" />
<polygon fill="#000000" fill-opacity="0.501961" points="70,21 77,24 57,32" />
<polygon fill="#000000" fill-opacity="0.501961" points="46,135 50,155 76,163" />
<polygon fill="#ffffff" fill-opacity="0.501961" points="203,75 213,114 171,97" />
<polygon fill="#000000" fill-opacity="0.501961" points="18,121 19,89 24,102" />
<polygon fill="#ffffff" fill-opacity="0.501961" points="226,-16 259,22 101,-1" />
<polygon fill="#ffffff" fill-opacity="0.501961" points="20,271 -16,236 1,214" />
<polygon fill="#000000" fill-opacity="0.501961" points="16,222 16,208 24,202" />
<polygon fill="#ffffff" fill-opacity="0.501961" points="215,90 166,34 121,90" />
<polygon fill="#000000" fill-opacity="0.501961" points="162,99 147,153 117,133" />
<polygon fill="#000000" fill-opacity="0.501961" points="167,32 165,21 150,10" />
<polygon fill="#000000" fill-opacity="0.501961" points="234,103 232,111 230,95" />
<polygon fill="#ffffff" fill-opacity="0.501961" points="3,36 23,71 60,42" />
<polygon fill="#ffffff" fill-opacity="0.501961" points="203,37 202,26 219,29" />
<polygon fill="#ffffff" fill-opacity="0.501961" points="82,109 45,63 83,38" />
<polygon fill="#000000" fill-opacity="0.501961" points="157,97 167,101 172,91" />
<polygon fill="#ffffff" fill-opacity="0.501961" points="185,51 222,90 209,64" />
<polygon fill="#ffffff" fill-opacity="0.501961" points="69,191 36,137 44,174" />
<polygon fill="#ffffff" fill-opacity="0.501961" points="199,121 214,108 215,126" />
<polygon fill="#000000" fill-opacity="0.501961" points="12,157 35,136 24,156" />
<polygon fill="#ffffff" fill-opacity="0.501961" points="18,167 34,140 26,194" />
<polygon fill="#000000" fill-opacity="0.501961" points="250,235 242,244 250,220" />
<polygon fill="#000000" fill-opacity="0.501961" points="19,101 27,86 21,116" />
<polygon fill="#000000" fill-opacity="0.501961" points="236,113 221,109 210,94" />
<polygon fill="#000000" fill-opacity="0.501961" points="47,53 78,35 65,49" />
<polygon fill="#000000" fill-opacity="0.501961" points="243,240 242,250 252,231" />
<polygon fill="#000000" fill-opacity="0.501961" points="28,198 49,193 32,192" />
<polygon fill="#ffffff" fill-opacity="0.501961" points="83,206 66,163 64,199" />
<polygon fill="#ffffff" fill-opacity="0.501961" points="107,215 11,271 24,209" />
<polygon fill="#ffffff" fill-opacity="0.501961" points="271,115 201,46 271,52" />
<polygon fill="#000000" fill-opacity="0.501961" points="123,159 141,156 108,143" />
<polygon fill="#000000" fill-opacity="0.501961" points="77,34 71,42 94,34" />
<polygon fill="#000000" fill-opacity="0.501961" points="251,207 227,190 243,195" />
<polygon fill="#ffffff" fill-opacity="0.501961" points="266,9 166,21 130,-16" />
<polygon fill="#ffffff" fill-opacity="0.501961" points="14,84 -5,113 -14,94" />
<polygon fill="#ffffff" fill-opacity="0.501961" points="1,271 20,160 -16,137" />
<polygon fill="#ffffff" fill-opacity="0.501961" points="123,140 129,150 131,146" />
<polygon fill="#ffffff" fill-opacity="0.501961" points="197,50 146,106 140,30" />
<polygon fill="#000000" fill-opacity="0.501961" points="83,17 63,26 98,21" />
<polygon fill="#ffffff" fill-opacity="0.501961" points="233,197 198,194 241,243" />
<polygon fill="#ffffff" fill-opacity="0.501961" points="212,156 257,193 102,167" />
<polygon fill="#ffffff" fill-opacity="0.501961" points="217,61 247,124 271,59" />
<polygon fill="#000000" fill-opacity="0.501961" points="200,132 182,113 201,124" />
<polygon fill="#f6f6f6" fill-opacity="0.501961" points="108,102 115,97 108,106" />
<polygon fill="#000000" fill-opacity="0.501961" points="52,155 45,110 33,133" />
<polygon fill="#000000" fill-opacity="0.501961" points="112,185 103,179 96,193" />
<polygon fill="#ffffff" fill-opacity="0.501961" points="36,52 -16,-11 67,1" />
<polygon fill="#ffffff" fill-opacity="0.501961" points="126,193 131,201 111,198" />
<polygon fill="#ffffff" fill-opacity="0.501961" points="200,170 130,200 130,177" />
<polygon fill="#000000" fill-opacity="0.501961" points="109,94 121,83 115,99" />
<polygon fill="#000000" fill-opacity="0.501961" points="14,235 12,248 17,248" />
<polygon fill="#000000" fill-opacity="0.501961" points="154,34 157,29 159,33" />
<polygon fill="#000000" fill-opacity="0.501961" points="98,35 86,37 99,39" />
<polygon fill="#000000" fill-opacity="0.501961" points="197,40 214,38 203,43" />
<polygon fill="#ffffff" fill-opacity="0.501961" points="76,126 82,122 69,115" />
<polygon fill="#ffffff" fill-opacity="0.501961" points="247,210 245,229 182,216" />
<polygon fill="#ffffff" fill-opacity="0.501961" points="16,226 17,264 33,231" />
<polygon fill="#ffffff" fill-opacity="0.501961" points="25,85 63,86 43,66" />
<polygon fill="#000000" fill-opacity="0.501961" points="192,19 178,24 205,23" />
<polygon fill="#000000" fill-opacity="0.501961" points="65,24 49,36 52,29" />
<polygon fill="#000000" fill-opacity="0.501961" points="211,189 225,193 201,193" />
<polygon fill="#000000" fill-opacity="0.501961" points="222,117 217,102 223,97" />
<polygon fill="#000000" fill-opacity="0.501961" points="30,134 31,143 23,155" />
<polygon fill="#000000" fill-opacity="0.501961" points="132,6 137,6 140,22" />
<polygon fill="#ffffff" fill-opacity="0.501961" points="64,148 56,144 55,136" />
<polygon fill="#ffffff" fill-opacity="0.501961" points="28,81 64,79 21,141" />
<polygon fill="#ffffff" fill-opacity="0.501961" points="114,186 90,156 104,137" />
<polygon fill="#ffffff" fill-opacity="0.501961" points="127,11 31,-16 62,20" />
<polygon fill="#000000" fill-opacity="0.501961" points="143,203 140,198 161,192" />
<polygon fill="#000000" fill-opacity="0.501961" points="14,137 18,146 21,121" />
<polygon fill="#000000" fill-opacity="0.501961" points="78,187 77,174 75,180" />
<polygon fill="#000000" fill-opacity="0.501961" points="34,148 39,150 38,166" />
<polygon fill="#000000" fill-opacity="0.501961" points="230,190 219,193 247,199" />
<polygon fill="#ffffff" fill-opacity="0.501961" points="156,199 218,186 270,117" />
<polygon fill="#000000" fill-opacity="0.501961" points="218,140 201,125 215,148" />
<polygon fill="#ffffff" fill-opacity="0.501961" points="271,239 222,256 271,263" />
<polygon fill="#ffffff" fill-opacity="0.501961" points="147,21 159,29 154,19" />
<polygon fill="#ffffff" fill-opacity="0.501961" points="193,195 154,178 271,133" />
<polygon fill="#000000" fill-opacity="0.501961" points="219,80 218,66 211,60" />
<polygon fill="#ffffff" fill-opacity="0.501961" points="54,194 73,163 72,203" />
<polygon fill="#000000" fill-opacity="0.501961" points="125,135 101,99 76,134" />
<polygon fill="#ffffff" fill-opacity="0.501961" points="123,179 101,172 118,188" />
<polygon fill="#ffffff" fill-opacity="0.501961" points="118,92 141,68 124,106" />
<polygon fill="#000000" fill-opacity="0.501961" points="177,103 180,119 164,93" />
<polygon fill="#000000" fill-opacity="0.501961" points="2,107 10,94 9,108" />
<polygon fill="#ffffff" fill-opacity="0.501961" points="142,23 49,-12 95,-16" />
<polygon fill="#ffffff" fill-opacity="0.501961" points="247,245 271,193 259,271" />
<polygon fill="#ffffff" fill-opacity="0.501961" points="18,100 9,152 -9,136" />
<polygon fill="#ffffff" fill-opacity="0.501961" points="102,194 94,204 112,205" />
<polygon fill="#000000" fill-opacity="0.501961" points="153,144 90,117 119,103" />
<polygon fill="#000000" fill-opacity="0.501961" points="136,121 172,101 191,119" />
<polygon fill="#ffffff" fill-opacity="0.501961" points="105,138 123,169 71,175" />
<polygon fill="#000000" fill-opacity="0.501961" points="31,68 33,74 45,56" />
<polygon fill="#000000" fill-opacity="0.501961" points="123,109 109,94 113,86" />
<polygon fill="#ffffff" fill-opacity="0.501961" points="119,32 207,83 208,130" />
<polygon fill="#ffffff" fill-opacity="0.501961" points="64,97 78,127 144,35" />
<polygon fill="#000000" fill-opacity="0.501961" points="237,39 221,39 236,34" />
<polygon fill="#ffffff" fill-opacity="0.501961" points="102,194 134,197 92,206" />
<polygon fill="#ffffff" fill-opacity="0.501961" points="228,33 193,37 210,27" />
<polygon fill="#ffffff" fill-opacity="0.501961" points="261,75 271,221 211,158" />
<polygon fill="#000000" fill-opacity="0.501961" points="216,104 210,97 213,97" />
<polygon fill="#000000" fill-opacity="0.501961" points="249,215 246,200 250,204" />
<polygon fill="#ffffff" fill-opacity="0.501961" points="80,39 114,40 76,119" />
<polygon fill="#000000" fill-opacity="0.501961" points="90,153 64,162 50,148" />
<polygon fill="#000000" fill-opacity="0.501961" points="70,123 26,140 46,109" />
<polygon fill="#ffffff" fill-opacity="0.501961" points="194,92 216,105 215,120" />
</g>
</svg>