<svg xmlns="http://www.w3.org/2000/svg" version="1.1" width="1024" height="1024">
<rect x="0" y="0" width="1024" height="1024" fill="#c8c8c8" />
<g transform="scale(4.000000) translate(0.5 0.5)">
<ellipse fill="#000000" fill-opacity="0.501961" cx="124" cy="124" rx="38" ry="38" />
<ellipse fill="#000000" fill-opacity="0.501961" cx="67" cy="131" rx="32" ry="32" />
<ellipse fill="#ffffff" fill-opacity="0.501961" cx="130" cy="71" rx="39" ry="39" />
<ellipse fill="#000000" fill-opacity="0.501961" cx="166" cy="111" rx="17" ry="17" />
<ellipse fill="#ffffff" fill-opacity="0.501961" cx="188" cy="206" rx="62" ry="62" />
<ellipse fill="#000000" fill-opacity="0.501961" cx="127" cy="132" rx="27" ry="27" />
<ellipse fill="#000000" fill-opacity="0.501961" cx="64" cy="36" rx="14" ry="14" />
<ellipse fill="#101010" fill-opacity="0.501961" cx="33" cy="141" rx="21" ry="21" />
<ellipse fill="#ffffff" fill-opacity="0.501961" cx="74" cy="83" rx="33" ry="33" />
<ellipse fill="#000000" fill-opacity="0.501961" cx="15" cy="101" rx="13" ry="13" />
<ellipse fill="#000000" fill-opacity="0.501961" cx="226" cy="107" rx="11" ry="11" />
<ellipse fill="#ffffff" fill-opacity="0.501961" cx="13" cy="34" rx="37" ry="37" />
<ellipse fill="#ffffff" fill-opacity="0.501961" cx="62" cy="255" rx="48" ry="48" />
<ellipse fill="#000000" fill-opacity="0.501961" cx="144" cy="18" rx="14" ry="14" />
<ellipse fill="#000000" fill-opacity="0.501961" cx="68" cy="137" rx="26" ry="26" />
<ellipse fill="#ffffff" fill-opacity="0.501961" cx="77" cy="111" rx="13" ry="13" />
<ellipse fill="#ffffff" fill-opacity="0.501961" cx="103" cy="164" rx="18" ry="18" />
<ellipse fill="#393939" fill-opacity="0.501961" cx="108" cy="198" rx="18" ry="18" />
<ellipse fill="#ffffff" fill-opacity="0.501961" cx="187" cy="78" rx="26" ry="26" />
<ellipse fill="#000000" fill-opacity="0.501961" cx="209" cy="135" rx="11" ry="11" />
<ellipse fill="#ffffff" fill-opacity="0.501961" cx="255" cy="145" rx="38" ry="38" />
<ellipse fill="#000000" fill-opacity="0.501961" cx="57" cy="105" rx="9" ry="9" />
<ellipse fill="#000000" fill-opacity="0.501961" cx="224" cy="33" rx="11" ry="11" />
<ellipse fill="#ffffff" fill-opacity="0.501961" cx="249" cy="65" rx="30" ry="30" />
<ellipse fill="#ffffff" fill-opacity="0.501961" cx="116" cy="245" rx="34" ry="34" />
<ellipse fill="#000000" fill-opacity="0.501961" cx="107" cy="116" rx="19" ry="19" />
<ellipse fill="#ffffff" fill-opacity="0.501961" cx="2" cy="180" rx="29" ry="29" />
<ellipse fill="#ffffff" fill-opacity="0.501961" cx="243" cy="2" rx="29" ry="29" />
<ellipse fill="#ffffff" fill-opacity="0.501961" cx="181" cy="153" rx="28" ry="28" />
<ellipse fill="#ffffff" fill-opacity="0.501961" cx="136" cy="97" rx="16" ry="16" />
<ellipse fill="#000000" fill-opacity="0.501961" cx="44" cy="191" rx="8" ry="8" />
<ellipse fill="#000000" fill-opacity="0.501961" cx="164" cy="108" rx="14" ry="14" />
<ellipse fill="#000000" fill-opacity="0.501961" cx="155" cy="195" rx="8" ry="8" />
<ellipse fill="#000000" fill-opacity="0.501961" cx="140" cy="201" rx="7" ry="7" />
<ellipse fill="#535353" fill-opacity="0.501961" cx="82" cy="201" rx="15" ry="15" />
<ellipse fill="#686868" fill-opacity="0.501961" cx="202" cy="36" rx="18" ry="18" />
<ellipse fill="#000000" fill-opacity="0.501961" cx="141" cy="129" rx="19" ry="19" />
<ellipse fill="#ffffff" fill-opacity="0.501961" cx="51" cy="2" rx="25" ry="25" />
<ellipse fill="#000000" fill-opacity="0.501961" cx="170" cy="27" rx="8" ry="8" />
<ellipse fill="#000000" fill-opacity="0.501961" cx="255" cy="215" rx="11" ry="11" />
<ellipse fill="#ffffff" fill-opacity="0.501961" cx="173" cy="225" rx="32" ry="32" />
<ellipse fill="#000000" fill-opacity="0.501961" cx="211" cy="151" rx="6" ry="6" />
<ellipse fill="#ffffff" fill-opacity="0.501961" cx="144" cy="66" rx="33" ry="33" />
<ellipse fill="#000000" fill-opacity="0.501961" cx="241" cy="198" rx="6" ry="6" />
<ellipse fill="#000000" fill-opacity="0.501961" cx="20" cy="88" rx="7" ry="7" />
<ellipse fill="#000000" fill-opacity="0.501961" cx="128" cy="206" rx="6" ry="6" />
<ellipse fill="#000000" fill-opacity="0.501961" cx="187" cy="116" rx="7" ry="7" />
<ellipse fill="#ffffff" fill-opacity="0.501961" cx="82" cy="74" rx="31" ry="31" />
<ellipse fill="#ffffff" fill-opacity="0.501961" cx="49" cy="237" rx="33" ry="33" />
<ellipse fill="#000000" fill-opacity="0.501961" cx="112" cy="95" rx="7" ry="7" />
<ellipse fill="#000000" fill-opacity="0.501961" cx="62" cy="204" rx="6" ry="6" />
<ellipse fill="#4f4f4f" fill-opacity="0.501961" cx="84" cy="28" rx="13" ry="13" />
<ellipse fill="#ffffff" fill-opacity="0.501961" cx="175" cy="6" rx="18" ry="18" />
<ellipse fill="#000000" fill-opacity="0.501961" cx="54" cy="119" rx="14" ry="14" />
<ellipse fill="#000000" fill-opacity="0.501961" cx="228" cy="194" rx="7" ry="7" />
<ellipse fill="#ffffff" fill-opacity="0.501961" cx="216" cy="225" rx="31" ry="31" />
<ellipse fill="#000000" fill-opacity="0.501961" cx="61" cy="95" rx="6" ry="6" />
<ellipse fill="#000000" fill-opacity="0.501961" cx="215" cy="192" rx="6" ry="6" />
<ellipse fill="#000000" fill-opacity="0.501961" cx="196" cy="125" rx="6" ry="6" />
<ellipse fill="#ffffff" fill-opacity="0.501961" cx="178" cy="139" rx="19" ry="19" />
<ellipse fill="#000000" fill-opacity="0.501961" cx="39" cy="172" rx="6" ry="6" />
<ellipse fill="#ffffff" fill-opacity="0.501961" cx="104" cy="150" rx="9" ry="9" />
<ellipse fill="#000000" fill-opacity="0.501961" cx="248" cy="231" rx="6" ry="6" />
<ellipse fill="#000000" fill-opacity="0.501961" cx="165" cy="190" rx="5" ry="5" />
<ellipse fill="#ffffff" fill-opacity="0.501961" cx="238" cy="163" rx="28" ry="28" />
<ellipse fill="#ffffff" fill-opacity="0.501961" cx="9" cy="40" rx="35" ry="35" />
<ellipse fill="#000000" fill-opacity="0.501961" cx="19" cy="118" rx="5" ry="5" />
<ellipse fill="#ffffff" fill-opacity="0.501961" cx="60" cy="179" rx="15" ry="15" />
<ellipse fill="#000000" fill-opacity="0.501961" cx="31" cy="71" rx="6" ry="6" />
<ellipse fill="#000000" fill-opacity="0.501961" cx="215" cy="69" rx="6" ry="6" />
<ellipse fill="#000000" fill-opacity="0.501961" cx="125" cy="23" rx="5" ry="5" />
<ellipse fill="#ffffff" fill-opacity="0.501961" cx="105" cy="199" rx="8" ry="8" />
<ellipse fill="#000000" fill-opacity="0.501961" cx="44" cy="59" rx="6" ry="6" />
<ellipse fill="#000000" fill-opacity="0.501961" cx="222" cy="81" rx="6" ry="6" />
<ellipse fill="#000000" fill-opacity="0.501961" cx="114" cy="21" rx="5" ry="5" />
<ellipse fill="#ffffff" fill-opacity="0.501961" cx="124" cy="144" rx="5" ry="5" />
<ellipse fill="#000000" fill-opacity="0.501961" cx="219" cy="121" rx="5" ry="5" />
<ellipse fill="#ffffff" fill-opacity="0.501961" cx="75" cy="118" rx="9" ry="9" />
<ellipse fill="#ffffff" fill-opacity="0.501961" cx="27" cy="127" rx="6" ry="6" />
<ellipse fill="#ffffff" fill-opacity="0.501961" cx="73" cy="197" rx="9" ry="9" />
<ellipse fill="#ffffff" fill-opacity="0.501961" cx="60" cy="143" rx="5" ry="5" />
<ellipse fill="#000000" fill-opacity="0.501961" cx="126" cy="184" rx="5" ry="5" />
<ellipse fill="#ffffff" fill-opacity="0.501961" cx="255" cy="74" rx="31" ry="31" />
<ellipse fill="#ffffff" fill-opacity="0.501961" cx="114" cy="0" rx="18" ry="18" />
<ellipse fill="#ffffff" fill-opacity="0.501961" cx="118" cy="50" rx="26" ry="26" />
<ellipse fill="#ffffff" fill-opacity="0.501961" cx="193" cy="86" rx="24" ry="24" />
<ellipse fill="#d1d1d1" fill-opacity="0.501961" cx="36" cy="155" rx="11" ry="11" />
<ellipse fill="#0c0c0c" fill-opacity="0.501961" cx="224" cy="101" rx="11" ry="11" />
<ellipse fill="#000000" fill-opacity="0.501961" cx="208" cy="60" rx="5" ry="5" />
<ellipse fill="#000000" fill-opacity="0.501961" cx="19" cy="210" rx="6" ry="6" />
<ellipse fill="#000000" fill-opacity="0.501961" cx="13" cy="224" rx="5" ry="5" />
<ellipse fill="#000000" fill-opacity="0.501961" cx="104" cy="19" rx="5" ry="5" />
<ellipse fill="#000000" fill-opacity="0.501961" cx="54" cy="198" rx="5" ry="5" />
<ellipse fill="#000000" fill-opacity="0.501961" cx="20" cy="152" rx="7" ry="7" />
<ellipse fill="#ffffff" fill-opacity="0.501961" cx="205" cy="0" rx="20" ry="20" />
<ellipse fill="#000000" fill-opacity="0.501961" cx="82" cy="141" rx="15" ry="15" />
<ellipse fill="#ffffff" fill-opacity="0.501961" cx="78" cy="102" rx="16" ry="16" />
<ellipse fill="#ffffff" fill-opacity="0.501961" cx="36" cy="100" rx="12" ry="12" />
<ellipse fill="#ffffff" fill-opacity="0.501961" cx="133" cy="97" rx="15" ry="15" />
<ellipse fill="#000000" fill-opacity="0.501961" cx="52" cy="54" rx="5" ry="5" />
<ellipse fill="#000000" fill-opacity="0.501961" cx="183" cy="22" rx="6" ry="6" />
<ellipse fill="#000000" fill-opacity="0.501961" cx="26" cy="201" rx="5" ry="5" />
<ellipse fill="#ffffff" fill-opacity="0.501961" cx="196" cy="33" rx="8" ry="8" />
<ellipse fill="#ffffff" fill-opacity="0.501961" cx="43" cy="227" rx="27" ry="27" />
<ellipse fill="#4d4d4d" fill-opacity="0.501961" cx="153" cy="25" rx="11" ry="11" />
<ellipse fill="#000000" fill-opacity="0.501961" cx="71" cy="208" rx="5" ry="5" />
<ellipse fill="#ffffff" fill-opacity="0.501961" cx="152" cy="22" rx="5" ry="5" />
<ellipse fill="#000000" fill-opacity="0.501961" cx="150" cy="120" rx="15" ry="15" />
<ellipse fill="#000000" fill-opacity="0.501961" cx="53" cy="35" rx="6" ry="6" />
<ellipse fill="#000000" fill-opacity="0.501961" cx="12" cy="236" rx="5" ry="5" />
<ellipse fill="#ffffff" fill-opacity="0.501961" cx="137" cy="242" rx="34" ry="34" />
<ellipse fill="#ffffff" fill-opacity="0.501961" cx="172" cy="65" rx="27" ry="27" />
<ellipse fill="#ffffff" fill-opacity="0.501961" cx="15" cy="179" rx="22" ry="22" />
<ellipse fill="#ffffff" fill-opacity="0.501961" cx="0" cy="86" rx="12" ry="12" />
<ellipse fill="#000000" fill-opacity="0.501961" cx="196" cy="43" rx="6" ry="6" />
<ellipse fill="#ffffff" fill-opacity="0.501961" cx="146" cy="177" rx="17" ry="17" />
<ellipse fill="#ffffff" fill-opacity="0.501961" cx="81" cy="0" rx="19" ry="19" />
<ellipse fill="#000000" fill-opacity="0.501961" cx="244" cy="241" rx="5" ry="5" />
<ellipse fill="#000000" fill-opacity="0.501961" cx="37" cy="164" rx="4" ry="4" />
<ellipse fill="#ffffff" fill-opacity="0.501961" cx="213" cy="227" rx="32" ry="32" />
<ellipse fill="#ffffff" fill-opacity="0.501961" cx="203" cy="111" rx="13" ry="13" />
<ellipse fill="#000000" fill-opacity="0.501961" cx="3" cy="107" rx="6" ry="6" />
<ellipse fill="#000000" fill-opacity="0.501961" cx="247" cy="205" rx="5" ry="5" />
<ellipse fill="#000000" fill-opacity="0.501961" cx="40" cy="179" rx="4" ry="4" />
<ellipse fill="#ffffff" fill-opacity="0.501961" cx="44" cy="84" rx="15" ry="15" />
<ellipse fill="#000000" fill-opacity="0.501961" cx="194" cy="23" rx="5" ry="5" />
<ellipse fill="#000000" fill-opacity="0.501961" cx="105" cy="187" rx="7" ry="7" />
<ellipse fill="#000000" fill-opacity="0.501961" cx="205" cy="191" rx="4" ry="4" />
<ellipse fill="#ffffff" fill-opacity="0.501961" cx="223" cy="54" rx="13" ry="13" />
<ellipse fill="#ffffff" fill-opacity="0.501961" cx="252" cy="98" rx="20" ry="20" />
<ellipse fill="#000000" fill-opacity="0.501961" cx="23" cy="79" rx="5" ry="5" />
<ellipse fill="#000000" fill-opacity="0.501961" cx="117" cy="86" rx="4" ry="4" />
<ellipse fill="#000000" fill-opacity="0.501961" cx="212" cy="144" rx="6" ry="6" />
<ellipse fill="#000000" fill-opacity="0.501961" cx="77" cy="184" rx="4" ry="4" />
<ellipse fill="#000000" fill-opacity="0.501961" cx="18" cy="126" rx="5" ry="5" />
<ellipse fill="#000000" fill-opacity="0.501961" cx="82" cy="210" rx="5" ry="5" />
<ellipse fill="#ffffff" fill-opacity="0.501961" cx="90" cy="28" rx="6" ry="6" />
<ellipse fill="#000000" fill-opacity="0.501961" cx="166" cy="96" rx="6" ry="6" />
<ellipse fill="#ffffff" fill-opacity="0.501961" cx="0" cy="128" rx="15" ry="15" />
<ellipse fill="#000000" fill-opacity="0.501961" cx="96" cy="21" rx="5" ry="5" />
<ellipse fill="#ffffff" fill-opacity="0.501961" cx="118" cy="199" rx="6" ry="6" />
<ellipse fill="#ffffff" fill-opacity="0.501961" cx="249" cy="13" rx="24" ry="24" />
<ellipse fill="#000000" fill-opacity="0.501961" cx="36" cy="66" rx="5" ry="5" />
<ellipse fill="#ffffff" fill-opacity="0.501961" cx="1" cy="57" rx="29" ry="29" />
<ellipse fill="#000000" fill-opacity="0.501961" cx="175" cy="112" rx="9" ry="9" />
<ellipse fill="#ffffff" fill-opacity="0.501961" cx="207" cy="121" rx="8" ry="8" />
<ellipse fill="#ffffff" fill-opacity="0.501961" cx="50" cy="167" rx="10" ry="10" />
<ellipse fill="#ffffff" fill-opacity="0.501961" cx="0" cy="199" rx="19" ry="19" />
<ellipse fill="#ffffff" fill-opacity="0.501961" cx="173" cy="3" rx="19" ry="19" />
<ellipse fill="#ffffff" fill-opacity="0.501961" cx="92" cy="202" rx="5" ry="5" />
<ellipse fill="#ffffff" fill-opacity="0.501961" cx="30" cy="118" rx="8" ry="8" />
<ellipse fill="#000000" fill-opacity="0.501961" cx="93" cy="211" rx="5" ry="5" />
<ellipse fill="#000000" fill-opacity="0.501961" cx="117" cy="191" rx="5" ry="5" />
<ellipse fill="#ffffff" fill-opacity="0.501961" cx="113" cy="169" rx="14" ry="14" />
<ellipse fill="#000000" fill-opacity="0.501961" cx="104" cy="122" rx="17" ry="17" />
<ellipse fill="#000000" fill-opacity="0.501961" cx="19" cy="94" rx="8" ry="8" />
<ellipse fill="#ffffff" fill-opacity="0.501961" cx="91" cy="175" rx="13" ry="13" />
<ellipse fill="#ffffff" fill-opacity="0.501961" cx="194" cy="32" rx="8" ry="8" />
<ellipse fill="#ffffff" fill-opacity="0.501961" cx="84" cy="244" rx="32" ry="32" />
<ellipse fill="#000000" fill-opacity="0.501961" cx="16" cy="217" rx="4" ry="4" />
<ellipse fill="#ffffff" fill-opacity="0.501961" cx="13" cy="111" rx="5" ry="5" />
<ellipse fill="#000000" fill-opacity="0.501961" cx="32" cy="196" rx="4" ry="4" />
<ellipse fill="#000000" fill-opacity="0.501961" cx="234" cy="194" rx="4" ry="4" />
<ellipse fill="#000000" fill-opacity="0.501961" cx="224" cy="90" rx="5" ry="5" />
<ellipse fill="#000000" fill-opacity="0.501961" cx="57" cy="50" rx="4" ry="4" />
<ellipse fill="#ffffff" fill-opacity="0.501961" cx="209" cy="33" rx="6" ry="6" />
<ellipse fill="#000000" fill-opacity="0.501961" cx="53" cy="122" rx="15" ry="15" />
<ellipse fill="#ffffff" fill-opacity="0.501961" cx="218" cy="94" rx="5" ry="5" />
<ellipse fill="#000000" fill-opacity="0.501961" cx="211" cy="98" rx="3" ry="3" />
<ellipse fill="#ffffff" fill-opacity="0.501961" cx="179" cy="156" rx="28" ry="28" />
<ellipse fill="#ffffff" fill-opacity="0.501961" cx="28" cy="157" rx="6" ry="6" />
<ellipse fill="#000000" fill-opacity="0.501961" cx="203" cy="55" rx="5" ry="5" />
<ellipse fill="#000000" fill-opacity="0.501961" cx="83" cy="192" rx="5" ry="5" />
<ellipse fill="#ffffff" fill-opacity="0.501961" cx="31" cy="5" rx="32" ry="32" />
<ellipse fill="#000000" fill-opacity="0.501961" cx="68" cy="40" rx="7" ry="7" />
<ellipse fill="#ffffff" fill-opacity="0.501961" cx="54" cy="139" rx="4" ry="4" />
<ellipse fill="#000000" fill-opacity="0.501961" cx="147" cy="198" rx="5" ry="5" />
<ellipse fill="#000000" fill-opacity="0.501961" cx="12" cy="243" rx="4" ry="4" />
<ellipse fill="#000000" fill-opacity="0.501961" cx="131" cy="136" rx="24" ry="24" />
<ellipse fill="#000000" fill-opacity="0.501961" cx="218" cy="127" rx="4" ry="4" />
<ellipse fill="#ffffff" fill-opacity="0.501961" cx="228" cy="215" rx="19" ry="19" />
<ellipse fill="#ffffff" fill-opacity="0.501961" cx="126" cy="144" rx="6" ry="6" />
<ellipse fill="#ffffff" fill-opacity="0.501961" cx="217" cy="32" rx="4" ry="4" />
<ellipse fill="#000000" fill-opacity="0.501961" cx="107" cy="209" rx="5" ry="5" />
<ellipse fill="#ffffff" fill-opacity="0.501961" cx="103" cy="0" rx="17" ry="17" />
<ellipse fill="#000000" fill-opacity="0.501961" cx="56" cy="108" rx="9" ry="9" />
<ellipse fill="#000000" fill-opacity="0.501961" cx="213" cy="136" rx="6" ry="6" />
<ellipse fill="#000000" fill-opacity="0.501961" cx="95" cy="37" rx="3" ry="3" />
<ellipse fill="#000000" fill-opacity="0.501961" cx="212" cy="25" rx="5" ry="5" />
<ellipse fill="#000000" fill-opacity="0.501961" cx="41" cy="132" rx="10" ry="10" />
<ellipse fill="#000000" fill-opacity="0.501961" cx="12" cy="231" rx="4" ry="4" />
<ellipse fill="#ffffff" fill-opacity="0.501961" cx="0" cy="243" rx="10" ry="10" />
<ellipse fill="#ffffff" fill-opacity="0.501961" cx="65" cy="190" rx="11" ry="11" />
<ellipse fill="#ffffff" fill-opacity="0.501961" cx="246" cy="160" rx="33" ry="33" />
<ellipse fill="#000000" fill-opacity="0.501961" cx="135" cy="203" rx="5" ry="5" />
<ellipse fill="#000000" fill-opacity="0.501961" cx="131" cy="24" rx="4" ry="4" />
<ellipse fill="#000000" fill-opacity="0.501961" cx="78" cy="179" rx="3" ry="3" />
<ellipse fill="#ffffff" fill-opacity="0.501961" cx="106" cy="199" rx="8" ry="8" />
<ellipse fill="#ffffff" fill-opacity="0.501961" cx="118" cy="138" rx="3" ry="3" />
<ellipse fill="#000000" fill-opacity="0.501961" cx="207" cy="40" rx="4" ry="4" />
<ellipse fill="#000000" fill-opacity="0.501961" cx="86" cy="21" rx="4" ry="4" />
<ellipse fill="#ffffff" fill-opacity="0.501961" cx="179" cy="220" rx="30" ry="30" />
<ellipse fill="#ffffff" fill-opacity="0.501961" cx="104" cy="141" rx="4" ry="4" />
<ellipse fill="#ffffff" fill-opacity="0.501961" cx="95" cy="29" rx="6" ry="6" />
<ellipse fill="#ffffff" fill-opacity="0.501961" cx="181" cy="35" rx="8" ry="8" />
<ellipse fill="#ffffff" fill-opacity="0.501961" cx="188" cy="71" rx="20" ry="20" />
<ellipse fill="#000000" fill-opacity="0.501961" cx="171" cy="35" rx="4" ry="4" />
<ellipse fill="#000000" fill-opacity="0.501961" cx="126" cy="179" rx="4" ry="4" />
<ellipse fill="#000000" fill-opacity="0.501961" cx="202" cy="23" rx="4" ry="4" />
<ellipse fill="#ffffff" fill-opacity="0.501961" cx="89" cy="68" rx="29" ry="29" />
<ellipse fill="#ffffff" fill-opacity="0.501961" cx="149" cy="235" rx="32" ry="32" />
<ellipse fill="#000000" fill-opacity="0.501961" cx="36" cy="157" rx="4" ry="4" />
<ellipse fill="#000000" fill-opacity="0.501961" cx="230" cy="36" rx="6" ry="6" />
<ellipse fill="#ffffff" fill-opacity="0.501961" cx="73" cy="31" rx="4" ry="4" />
<ellipse fill="#060606" fill-opacity="0.501961" cx="94" cy="193" rx="6" ry="6" />
<ellipse fill="#000000" fill-opacity="0.501961" cx="137" cy="12" rx="6" ry="6" />
<ellipse fill="#000000" fill-opacity="0.501961" cx="218" cy="75" rx="4" ry="4" />
<ellipse fill="#ffffff" fill-opacity="0.501961" cx="89" cy="186" rx="6" ry="6" />
<ellipse fill="#ffffff" fill-opacity="0.501961" cx="81" cy="29" rx="5" ry="5" />
<ellipse fill="#000000" fill-opacity="0.501961" cx="219" cy="115" rx="4" ry="4" />
<ellipse fill="#ffffff" fill-opacity="0.501961" cx="46" cy="158" rx="6" ry="6" />
<ellipse fill="#000000" fill-opacity="0.501961" cx="44" cy="188" rx="6" ry="6" />
<ellipse fill="#ffffff" fill-opacity="0.501961" cx="0" cy="141" rx="14" ry="14" />
<ellipse fill="#ffffff" fill-opacity="0.501961" cx="19" cy="43" rx="26" ry="26" />
<ellipse fill="#ffffff" fill-opacity="0.501961" cx="210" cy="174" rx="16" ry="16" />
<ellipse fill="#ffffff" fill-opacity="0.501961" cx="110" cy="103" rx="3" ry="3" />
<ellipse fill="#ffffff" fill-opacity="0.501961" cx="148" cy="19" rx="4" ry="4" />
<ellipse fill="#ffffff" fill-opacity="0.501961" cx="24" cy="135" rx="4" ry="4" />
<ellipse fill="#ffffff" fill-opacity="0.501961" cx="158" cy="0" rx="12" ry="12" />
<ellipse fill="#ffffff" fill-opacity="0.501961" cx="174" cy="132" rx="13" ry="13" />
<ellipse fill="#000000" fill-opacity="0.501961" cx="118" cy="208" rx="5" ry="5" />
<ellipse fill="#ffffff" fill-opacity="0.501961" cx="38" cy="188" rx="4" ry="4" />
<ellipse fill="#000000" fill-opacity="0.501961" cx="74" cy="24" rx="4" ry="4" />
<ellipse fill="#ffffff" fill-opacity="0.501961" cx="209" cy="48" rx="5" ry="5" />
<ellipse fill="#ffffff" fill-opacity="0.501961" cx="227" cy="119" rx="5" ry="5" />
<ellipse fill="#ffffff" fill-opacity="0.501961" cx="240" cy="61" rx="23" ry="23" />
<ellipse fill="#000000" fill-opacity="0.501961" cx="19" cy="112" rx="4" ry="4" />
<ellipse fill="#ffffff" fill-opacity="0.501961" cx="63" cy="146" rx="4" ry="4" />
<ellipse fill="#000000" fill-opacity="0.501961" cx="79" cy="37" rx="5" ry="5" />
<ellipse fill="#000000" fill-opacity="0.501961" cx="125" cy="187" rx="4" ry="4" />
<ellipse fill="#ffffff" fill-opacity="0.501961" cx="59" cy="175" rx="15" ry="15" />
<ellipse fill="#000000" fill-opacity="0.501961" cx="193" cy="122" rx="4" ry="4" />
<ellipse fill="#000000" fill-opacity="0.501961" cx="122" cy="22" rx="4" ry="4" />
<ellipse fill="#ffffff" fill-opacity="0.501961" cx="80" cy="201" rx="6" ry="6" />
<ellipse fill="#000000" fill-opacity="0.501961" cx="159" cy="20" rx="4" ry="4" />
<ellipse fill="#ffffff" fill-opacity="0.501961" cx="116" cy="181" rx="7" ry="7" />
<ellipse fill="#000000" fill-opacity="0.501961" cx="57" cy="202" rx="5" ry="5" />
<ellipse fill="#ffffff" fill-opacity="0.501961" cx="232" cy="0" rx="26" ry="26" />
<ellipse fill="#ffffff" fill-opacity="0.501961" cx="132" cy="54" rx="26" ry="26" />
<ellipse fill="#ffffff" fill-opacity="0.501961" cx="190" cy="0" rx="20" ry="20" />
<ellipse fill="#ffffff" fill-opacity="0.501961" cx="140" cy="185" rx="12" ry="12" />
<ellipse fill="#ffffff" fill-opacity="0.501961" cx="102" cy="158" rx="13" ry="13" />
<ellipse fill="#ffffff" fill-opacity="0.501961" cx="0" cy="224" rx="10" ry="10" />
<ellipse fill="#000000" fill-opacity="0.501961" cx="200" cy="129" rx="4" ry="4" />
<ellipse fill="#000000" fill-opacity="0.501961" cx="80" cy="22" rx="4" ry="4" />
<ellipse fill="#000000" fill-opacity="0.501961" cx="219" cy="192" rx="4" ry="4" />
<ellipse fill="#ffffff" fill-opacity="0.501961" cx="80" cy="99" rx="17" ry="17" />
<ellipse fill="#000000" fill-opacity="0.501961" cx="99" cy="210" rx="4" ry="4" />
<ellipse fill="#000000" fill-opacity="0.501961" cx="250" cy="224" rx="4" ry="4" />
<ellipse fill="#ffffff" fill-opacity="0.501961" cx="43" cy="230" rx="28" ry="28" />
<ellipse fill="#ffffff" fill-opacity="0.501961" cx="60" cy="72" rx="17" ry="17" />
<ellipse fill="#000000" fill-opacity="0.501961" cx="8" cy="103" rx="5" ry="5" />
<ellipse fill="#ffffff" fill-opacity="0.501961" cx="35" cy="106" rx="11" ry="11" />
<ellipse fill="#ffffff" fill-opacity="0.501961" cx="35" cy="141" rx="3" ry="3" />
<ellipse fill="#000000" fill-opacity="0.501961" cx="211" cy="63" rx="4" ry="4" />
<ellipse fill="#ffffff" fill-opacity="0.501961" cx="254" cy="253" rx="12" ry="12" />
<ellipse fill="#ffffff" fill-opacity="0.501961" cx="209" cy="126" rx="5" ry="5" />
<ellipse fill="#000000" fill-opacity="0.501961" cx="140" cy="130" rx="18" ry="18" />
<ellipse fill="#000000" fill-opacity="0.501961" cx="111" cy="95" rx="5" ry="5" />
<ellipse fill="#000000" fill-opacity="0.501961" cx="139" cy="23" rx="6" ry="6" />
<ellipse fill="#000000" fill-opacity="0.501961" cx="36" cy="151" rx="3" ry="3" />
<ellipse fill="#000000" fill-opacity="0.501961" cx="67" cy="134" rx="9" ry="9" />
<ellipse fill="#ffffff" fill-opacity="0.501961" cx="162" cy="163" rx="19" ry="19" />
<ellipse fill="#000000" fill-opacity="0.501961" cx="157" cy="194" rx="4" ry="4" />
<ellipse fill="#ffffff" fill-opacity="0.501961" cx="197" cy="103" rx="13" ry="13" />
<ellipse fill="#000000" fill-opacity="0.501961" cx="22" cy="147" rx="7" ry="7" />
<ellipse fill="#ffffff" fill-opacity="0.501961" cx="132" cy="17" rx="4" ry="4" />
<ellipse fill="#000000" fill-opacity="0.501961" cx="60" cy="93" rx="4" ry="4" />
<ellipse fill="#ffffff" fill-opacity="0.501961" cx="43" cy="201" rx="6" ry="6" />
<ellipse fill="#000000" fill-opacity="0.501961" cx="214" cy="40" rx="4" ry="4" />
<ellipse fill="#000000" fill-opacity="0.501961" cx="186" cy="117" rx="4" ry="4" />
<ellipse fill="#000000" fill-opacity="0.501961" cx="158" cy="113" rx="13" ry="13" />
<ellipse fill="#000000" fill-opacity="0.501961" cx="30" cy="139" rx="4" ry="4" />
<ellipse fill="#ffffff" fill-opacity="0.501961" cx="247" cy="141" rx="29" ry="29" />
<ellipse fill="#000000" fill-opacity="0.501961" cx="42" cy="182" rx="4" ry="4" />
<ellipse fill="#ffffff" fill-opacity="0.501961" cx="224" cy="33" rx="3" ry="3" />
<ellipse fill="#000000" fill-opacity="0.501961" cx="200" cy="49" rx="4" ry="4" />
<ellipse fill="#000000" fill-opacity="0.501961" cx="110" cy="20" rx="4" ry="4" />
<ellipse fill="#ffffff" fill-opacity="0.501961" cx="74" cy="2" rx="18" ry="18" />
<ellipse fill="#000000" fill-opacity="0.501961" cx="77" cy="209" rx="4" ry="4" />
<ellipse fill="#ffffff" fill-opacity="0.501961" cx="1" cy="253" rx="13" ry="13" />
<ellipse fill="#000000" fill-opacity="0.501961" cx="87" cy="210" rx="4" ry="4" />
<ellipse fill="#ffffff" fill-opacity="0.501961" cx="56" cy="107" rx="3" ry="3" />
<ellipse fill="#ffffff" fill-opacity="0.501961" cx="17" cy="180" rx="20" ry="20" />
<ellipse fill="#000000" fill-opacity="0.501961" cx="190" cy="23" rx="4" ry="4" />
<ellipse fill="#000000" fill-opacity="0.501961" cx="132" cy="158" rx="5" ry="5" />
<ellipse fill="#000000" fill-opacity="0.501961" cx="128" cy="205" rx="4" ry="4" />
<ellipse fill="#000000" fill-opacity="0.501961" cx="80" cy="144" rx="14" ry="14" />
<ellipse fill="#000000" fill-opacity="0.501961" cx="17" cy="136" rx="4" ry="4" />
<ellipse fill="#ffffff" fill-opacity="0.501961" cx="120" cy="243" rx="32" ry="32" />
<ellipse fill="#ffffff" fill-opacity="0.501961" cx="255" cy="177" rx="22" ry="22" />
<ellipse fill="#000000" fill-opacity="0.501961" cx="36" cy="195" rx="3" ry="3" />
<ellipse fill="#ffffff" fill-opacity="0.501961" cx="206" cy="32" rx="6" ry="6" />
<ellipse fill="#000000" fill-opacity="0.501961" cx="191" cy="42" rx="4" ry="4" />
<ellipse fill="#000000" fill-opacity="0.501961" cx="63" cy="156" rx="7" ry="7" />
<ellipse fill="#ffffff" fill-opacity="0.501961" cx="76" cy="122" rx="6" ry="6" />
<ellipse fill="#000000" fill-opacity="0.501961" cx="152" cy="31" rx="3" ry="3" />
<ellipse fill="#000000" fill-opacity="0.501961" cx="226" cy="193" rx="4" ry="4" />
<ellipse fill="#ffffff" fill-opacity="0.501961" cx="247" cy="93" rx="16" ry="16" />
<ellipse fill="#000000" fill-opacity="0.501961" cx="177" cy="25" rx="4" ry="4" />
<ellipse fill="#ffffff" fill-opacity="0.501961" cx="155" cy="64" rx="30" ry="30" />
<ellipse fill="#000000" fill-opacity="0.501961" cx="40" cy="62" rx="4" ry="4" />
<ellipse fill="#ffffff" fill-opacity="0.501961" cx="214" cy="32" rx="5" ry="5" />
<ellipse fill="#ffffff" fill-opacity="0.501961" cx="0" cy="95" rx="7" ry="7" />
<ellipse fill="#000000" fill-opacity="0.501961" cx="38" cy="170" rx="4" ry="4" />
<ellipse fill="#000000" fill-opacity="0.501961" cx="229" cy="109" rx="6" ry="6" />
<ellipse fill="#ffffff" fill-opacity="0.501961" cx="121" cy="141" rx="3" ry="3" />
<ellipse fill="#ffffff" fill-opacity="0.501961" cx="97" cy="202" rx="5" ry="5" />
<ellipse fill="#ffffff" fill-opacity="0.501961" cx="40" cy="87" rx="14" ry="14" />
<ellipse fill="#000000" fill-opacity="0.501961" cx="245" cy="201" rx="4" ry="4" />
<ellipse fill="#000000" fill-opacity="0.501961" cx="204" cy="132" rx="4" ry="4" />
<ellipse fill="#000000" fill-opacity="0.501961" cx="14" cy="221" rx="4" ry="4" />
<ellipse fill="#000000" fill-opacity="0.501961" cx="79" cy="188" rx="4" ry="4" />
<ellipse fill="#000000" fill-opacity="0.501961" cx="89" cy="37" rx="3" ry="3" />
<ellipse fill="#ffffff" fill-opacity="0.501961" cx="26" cy="128" rx="5" ry="5" />
<ellipse fill="#ffffff" fill-opacity="0.501961" cx="53" cy="45" rx="4" ry="4" />
<ellipse fill="#000000" fill-opacity="0.501961" cx="210" cy="151" rx="4" ry="4" />
<ellipse fill="#ffffff" fill-opacity="0.501961" cx="210" cy="86" rx="10" ry="10" />
<ellipse fill="#000000" fill-opacity="0.501961" cx="165" cy="189" rx="4" ry="4" />
<ellipse fill="#ffffff" fill-opacity="0.501961" cx="154" cy="25" rx="4" ry="4" />
<ellipse fill="#000000" fill-opacity="0.501961" cx="224" cy="28" rx="4" ry="4" />
<ellipse fill="#ffffff" fill-opacity="0.501961" cx="116" cy="0" rx="18" ry="18" />
<ellipse fill="#ffffff" fill-opacity="0.501961" cx="188" cy="171" rx="24" ry="24" />
<ellipse fill="#000000" fill-opacity="0.501961" cx="209" cy="192" rx="3" ry="3" />
<ellipse fill="#ffffff" fill-opacity="0.501961" cx="122" cy="199" rx="5" ry="5" />
<ellipse fill="#000000" fill-opacity="0.501961" cx="23" cy="204" rx="4" ry="4" />
<ellipse fill="#000000" fill-opacity="0.501961" cx="241" cy="197" rx="4" ry="4" />
<ellipse fill="#000000" fill-opacity="0.501961" cx="61" cy="28" rx="4" ry="4" />
<ellipse fill="#ffffff" fill-opacity="0.501961" cx="68" cy="31" rx="3" ry="3" />
<ellipse fill="#000000" fill-opacity="0.501961" cx="93" cy="130" rx="13" ry="13" />
<ellipse fill="#0e0e0e" fill-opacity="0.501961" cx="225" cy="104" rx="9" ry="9" />
<ellipse fill="#ffffff" fill-opacity="0.501961" cx="226" cy="103" rx="3" ry="3" />
<ellipse fill="#000000" fill-opacity="0.501961" cx="68" cy="25" rx="4" ry="4" />
<ellipse fill="#ffffff" fill-opacity="0.501961" cx="255" cy="206" rx="4" ry="4" />
<ellipse fill="#000000" fill-opacity="0.501961" cx="167" cy="28" rx="5" ry="5" />
<ellipse fill="#ffffff" fill-opacity="0.501961" cx="224" cy="219" rx="24" ry="24" />
<ellipse fill="#ffffff" fill-opacity="0.501961" cx="59" cy="42" rx="3" ry="3" />
<ellipse fill="#ffffff" fill-opacity="0.501961" cx="210" cy="255" rx="32" ry="32" />
<ellipse fill="#ffffff" fill-opacity="0.501961" cx="80" cy="169" rx="8" ry="8" />
<ellipse fill="#000000" fill-opacity="0.501961" cx="206" cy="23" rx="4" ry="4" />
<ellipse fill="#000000" fill-opacity="0.501961" cx="60" cy="126" rx="11" ry="11" />
<ellipse fill="#ffffff" fill-opacity="0.501961" cx="86" cy="49" rx="11" ry="11" />
<ellipse fill="#000000" fill-opacity="0.501961" cx="173" cy="111" rx="10" ry="10" />
<ellipse fill="#000000" fill-opacity="0.501961" cx="149" cy="11" rx="4" ry="4" />
<ellipse fill="#ffffff" fill-opacity="0.501961" cx="132" cy="94" rx="15" ry="15" />
<ellipse fill="#000000" fill-opacity="0.501961" cx="19" cy="210" rx="4" ry="4" />
<ellipse fill="#ffffff" fill-opacity="0.501961" cx="91" cy="181" rx="9" ry="9" />
<ellipse fill="#000000" fill-opacity="0.501961" cx="115" cy="88" rx="4" ry="4" />
<ellipse fill="#ffffff" fill-opacity="0.501961" cx="154" cy="0" rx="10" ry="10" />
<ellipse fill="#ffffff" fill-opacity="0.501961" cx="143" cy="14" rx="3" ry="3" />
<ellipse fill="#ffffff" fill-opacity="0.501961" cx="74" cy="29" rx="3" ry="3" />
<ellipse fill="#ffffff" fill-opacity="0.501961" cx="0" cy="75" rx="19" ry="19" />
<ellipse fill="#000000" fill-opacity="0.501961" cx="3" cy="110" rx="4" ry="4" />
<ellipse fill="#000000" fill-opacity="0.501961" cx="112" cy="189" rx="4" ry="4" />
<ellipse fill="#000000" fill-opacity="0.501961" cx="30" cy="198" rx="4" ry="4" />
<ellipse fill="#ffffff" fill-opacity="0.501961" cx="186" cy="149" rx="21" ry="21" />
<ellipse fill="#ffffff" fill-opacity="0.501961" cx="180" cy="65" rx="22" ry="22" />
<ellipse fill="#000000" fill-opacity="0.501961" cx="53" cy="36" rx="6" ry="6" />
<ellipse fill="#ffffff" fill-opacity="0.501961" cx="255" cy="235" rx="5" ry="5" />
<ellipse fill="#000000" fill-opacity="0.501961" cx="203" cy="192" rx="3" ry="3" />
<ellipse fill="#000000" fill-opacity="0.501961" cx="66" cy="206" rx="4" ry="4" />
<ellipse fill="#000000" fill-opacity="0.501961" cx="104" cy="185" rx="5" ry="5" />
<ellipse fill="#000000" fill-opacity="0.501961" cx="222" cy="81" rx="4" ry="4" />
<ellipse fill="#000000" fill-opacity="0.501961" cx="142" cy="201" rx="4" ry="4" />
<ellipse fill="#000000" fill-opacity="0.501961" cx="51" cy="196" rx="4" ry="4" />
<ellipse fill="#000000" fill-opacity="0.501961" cx="17" cy="131" rx="4" ry="4" />
<ellipse fill="#000000" fill-opacity="0.501961" cx="53" cy="150" rx="6" ry="6" />
<ellipse fill="#000000" fill-opacity="0.501961" cx="86" cy="36" rx="3" ry="3" />
<ellipse fill="#000000" fill-opacity="0.501961" cx="243" cy="245" rx="3" ry="3" />
<ellipse fill="#000000" fill-opacity="0.501961" cx="250" cy="214" rx="4" ry="4" />
<ellipse fill="#ffffff" fill-opacity="0.501961" cx="28" cy="158" rx="5" ry="5" />
<ellipse fill="#ffffff" fill-opacity="0.501961" cx="133" cy="194" rx="7" ry="7" />
<ellipse fill="#000000" fill-opacity="0.501961" cx="27" cy="75" rx="4" ry="4" />
<ellipse fill="#ffffff" fill-opacity="0.501961" cx="43" cy="0" rx="30" ry="30" />
<ellipse fill="#000000" fill-opacity="0.501961" cx="215" cy="25" rx="4" ry="4" />
<ellipse fill="#000000" fill-opacity="0.501961" cx="72" cy="37" rx="5" ry="5" />
<ellipse fill="#000000" fill-opacity="0.501961" cx="202" cy="41" rx="3" ry="3" />
<ellipse fill="#000000" fill-opacity="0.501961" cx="155" cy="32" rx="3" ry="3" />
<ellipse fill="#000000" fill-opacity="0.501961" cx="61" cy="48" rx="4" ry="4" />
<ellipse fill="#000000" fill-opacity="0.501961" cx="168" cy="93" rx="3" ry="3" />
<ellipse fill="#000000" fill-opacity="0.501961" cx="52" cy="54" rx="4" ry="4" />
<ellipse fill="#000000" fill-opacity="0.501961" cx="21" cy="105" rx="4" ry="4" />
<ellipse fill="#ffffff" fill-opacity="0.501961" cx="113" cy="38" rx="15" ry="15" />
<ellipse fill="#000000" fill-opacity="0.501961" cx="19" cy="121" rx="4" ry="4" />
<ellipse fill="#000000" fill-opacity="0.501961" cx="19" cy="152" rx="6" ry="6" />
<ellipse fill="#000000" fill-opacity="0.501961" cx="20" cy="88" rx="6" ry="6" />
<ellipse fill="#000000" fill-opacity="0.501961" cx="11" cy="99" rx="5" ry="5" />
<ellipse fill="#ffffff" fill-opacity="0.501961" cx="43" cy="156" rx="5" ry="5" />
<ellipse fill="#ffffff" fill-opacity="0.501961" cx="190" cy="78" rx="23" ry="23" />
<ellipse fill="#ffffff" fill-opacity="0.501961" cx="66" cy="239" rx="28" ry="28" />
</g>
</svg>