<svg xmlns="http://www.w3.org/2000/svg" version="1.1" width="512" height="512">
<rect x="0" y="0" width="512" height="512" fill="#ebeabe" />
<g transform="scale(1.000000) translate(0.5 0.5)">
<ellipse fill="#010201" fill-opacity="0.235294" cx="332" cy="165" rx="24" ry="24" />
<ellipse fill="#010201" fill-opacity="0.235294" cx="418" cy="463" rx="24" ry="24" />
<ellipse fill="#010201" fill-opacity="0.235294" cx="338" cy="213" rx="24" ry="24" />
<ellipse fill="#010201" fill-opacity="0.235294" cx="344" cy="307" rx="24" ry="24" />
<ellipse fill="#010201" fill-opacity="0.235294" cx="342" cy="260" rx="24" ry="24" />
<ellipse fill="#010201" fill-opacity="0.235294" cx="308" cy="123" rx="24" ry="24" />
<ellipse fill="#010201" fill-opacity="0.235294" cx="380" cy="370" rx="24" ry="24" />
<ellipse fill="#010201" fill-opacity="0.235294" cx="326" cy="488" rx="24" ry="24" />
<ellipse fill="#010201" fill-opacity="0.235294" cx="192" cy="324" rx="24" ry="24" />
<ellipse fill="#010201" fill-opacity="0.235294" cx="128" cy="436" rx="24" ry="24" />
<ellipse fill="#010201" fill-opacity="0.235294" cx="455" cy="487" rx="24" ry="24" />
<ellipse fill="#010201" fill-opacity="0.235294" cx="161" cy="372" rx="24" ry="24" />
<ellipse fill="#010201" fill-opacity="0.235294" cx="370" cy="460" rx="24" ry="24" />
<ellipse fill="#010201" fill-opacity="0.235294" cx="99" cy="477" rx="24" ry="24" />
<ellipse fill="#010201" fill-opacity="0.235294" cx="305" cy="291" rx="24" ry="24" />
<ellipse fill="#010201" fill-opacity="0.235294" cx="453" cy="437" rx="24" ry="24" />
<ellipse fill="#010201" fill-opacity="0.235294" cx="161" cy="273" rx="24" ry="24" />
<ellipse fill="#010201" fill-opacity="0.235294" cx="341" cy="348" rx="24" ry="24" />
<ellipse fill="#010201" fill-opacity="0.235294" cx="414" cy="409" rx="24" ry="24" />
<ellipse fill="#010201" fill-opacity="0.235294" cx="115" cy="382" rx="24" ry="24" />
<ellipse fill="#010201" fill-opacity="0.235294" cx="306" cy="245" rx="24" ry="24" />
<ellipse fill="#010201" fill-opacity="0.235294" cx="267" cy="104" rx="24" ry="24" />
</g>
</svg>